<?xml version="1.0" encoding="utf-8"?>
<!-- Generator: Adobe Illustrator 25.2.1, SVG Export Plug-In . SVG Version: 6.00 Build 0)  -->
<svg version="1.0" id="Layer_1" xmlns="http://www.w3.org/2000/svg" xmlns:xlink="http://www.w3.org/1999/xlink" x="0px" y="0px"
	 viewBox="0 0 595.28 841.89" style="enable-background:new 0 0 595.28 841.89;" xml:space="preserve">
<g>
	<g>
		<g>
			<path d="M455.33,254.69c5.04,17.91,5.16,37.95-3.02,54.98c-6.96,14.48-20.16,26.24-35.95,29.97c-4.11,0.97-8.54,1.52-12.76,0.96
				c-3.68-0.49-7.45-1.92-9.17-5.42c-0.3,1.14-0.6,2.28-0.9,3.42c8.84-6.2,20.45,1.64,25.7,9.03c5.48,7.71,7.49,17.26,6.77,26.59
				c-0.73,9.43-4.46,18.76-10.84,25.82c-7.18,7.95-16.78,13.22-27.07,15.98c-10.41,2.79-21.56,3.14-32.14,1.11
				c-2.69-0.52-5.72-1.16-7.77-3.1c-1.41-1.33-2.51-3.69-1.52-5.54c0.84-1.56,2.74-1.81,4.43-1.61c2.2,0.27,4.23,1.34,5.94,2.7
				c7.46,5.91,9.73,16.48,8.1,25.5c-1.98,10.98-9.61,19.82-18.2,26.48c-4.71,3.66-9.84,6.76-15.05,9.64
				c-5.74,3.17-11.65,6.04-17.69,8.59c-12.34,5.21-25.25,9.11-38.38,11.78c-3.25,0.66-6.51,1.24-9.78,1.75
				c-1.34,0.21-2.07,1.88-1.75,3.08c0.39,1.42,1.74,1.96,3.08,1.75c14.29-2.24,28.35-5.88,41.87-11.02
				c13.01-4.94,25.93-11.07,37.33-19.12c10.09-7.13,19.59-16.68,22.81-28.97c2.76-10.53,1.02-22.91-6.66-31.02
				c-3.79-4-9.39-7.16-15.06-5.91c-2.87,0.63-5.29,2.82-6.06,5.69c-0.84,3.12,0.25,6.43,2.24,8.87c4.05,4.98,11.82,5.68,17.74,6.3
				c5.95,0.63,11.96,0.56,17.9-0.2c12.01-1.54,23.59-5.84,33.11-13.43c8.76-6.98,14.91-16.66,17.34-27.61
				c2.32-10.48,1.45-21.73-3.27-31.43c-4.85-9.98-15.13-19.28-26.86-18.83c-3.12,0.12-6.19,1.02-8.76,2.82
				c-1.17,0.82-1.54,2.12-0.9,3.42c3.96,8.06,14.61,8.7,22.38,7.68c8.76-1.15,17.1-4.58,24.27-9.72
				c7.28-5.22,13.45-11.96,17.9-19.75c4.98-8.71,7.74-18.53,8.75-28.48c1.15-11.42-0.17-23.06-3.27-34.08
				C459.29,250.26,454.46,251.58,455.33,254.69L455.33,254.69z"/>
		</g>
	</g>
	<g>
		<g>
			<path d="M272.97,467.03c-4.23,5.2-9.03,9.96-14.35,14.04c-2.54,1.94-5.49,3.48-7.85,5.64c-2.51,2.29-3.2,5.72-2.03,8.87
				c1.17,3.15,3.49,5.62,5.77,8.01c2.26,2.36,4.6,4.65,7.03,6.84c5.01,4.53,10.35,8.69,15.96,12.44c6.15,4.11,12.63,7.7,19.37,10.76
				c1.23,0.56,2.69,0.35,3.42-0.9c0.63-1.07,0.34-2.86-0.9-3.42c-11.27-5.11-21.85-11.73-31.27-19.75
				c-2.33-1.98-4.59-4.04-6.78-6.17c-2.13-2.08-4.4-4.2-6.22-6.57c-1.36-1.77-2.95-4.38-1.09-6.32c0.82-0.85,1.91-1.43,2.88-2.09
				c1.44-0.96,2.84-1.97,4.22-3.02c5.69-4.33,10.85-9.27,15.36-14.82c0.85-1.05,1.02-2.51,0-3.54
				C275.63,466.16,273.82,465.98,272.97,467.03L272.97,467.03z"/>
		</g>
	</g>
</g>
</svg>
