<?xml version="1.0" encoding="utf-8"?>
<!-- Generator: Adobe Illustrator 25.2.1, SVG Export Plug-In . SVG Version: 6.00 Build 0)  -->
<svg version="1.0" id="Layer_1" xmlns="http://www.w3.org/2000/svg" xmlns:xlink="http://www.w3.org/1999/xlink" x="0px" y="0px"
	 viewBox="0 0 2000 2000" style="enable-background:new 0 0 2000 2000;" xml:space="preserve">
<style type="text/css">
	.st0{fill:#2E3690;stroke:#010101;stroke-miterlimit:10;}
	.st1{fill:#1B4020;stroke:#010101;stroke-miterlimit:10;}
	.st2{fill:#0E542A;}
</style>
<path class="st0" d="M978.8,790"/>
<g>
	<path class="st1" d="M404.2,1127.3"/>
	<polygon class="st1" points="458.8,1119.8 818,483.3 1365,1176.5 2135.5,1176.5 1530.1,445.5 742.4,357.3 	"/>
	<polyline class="st1" points="-5.7,996.3 210.7,632.7 414.1,996.3 582.9,641.4 180.4,537.5 	"/>
	<g>
		<rect x="138.7" y="825.5" class="st1" width="53.3" height="53.3"/>
		<rect x="235.3" y="825.5" class="st1" width="53.3" height="53.3"/>
		<rect x="235.3" y="908.9" class="st1" width="53.3" height="53.3"/>
		<rect x="138.7" y="908.9" class="st1" width="53.3" height="53.3"/>
	</g>
	<g>
		<rect x="711.1" y="852.1" class="st1" width="95.3" height="95.3"/>
		<rect x="883.8" y="852.1" class="st1" width="95.3" height="95.3"/>
		<rect x="883.8" y="1001.3" class="st1" width="95.3" height="95.3"/>
		<rect x="711.1" y="1001.3" class="st1" width="95.3" height="95.3"/>
	</g>
	<g>
		<g>
			<path class="st2" d="M564.6,1226.7c-14.8-5-20.6-4.1-26.3,5.8c-5,8.6-9.5,16-19.1,35.9l-44.2,90.9l-12.8-6.2l-39.7-160.6
				l-25.1,51.6c-9.7,19.9-13.6,29-16.1,36c-3.9,10.5-1.7,18.1,14.8,27.3l-4.1,8.4l-56.7-27.6l4.1-8.4c13.6,5.2,21,4.5,27.6-5.5
				c4.9-7.8,9.4-15.8,19-35.7l26.3-54.2c3.7-7.5,5.7-12.8,4.2-20.8c-1.4-7.7-6.5-11.1-15.6-16.7l4.1-8.4l44.6,21.7l37.8,143.6
				l20-41.1c9.7-19.9,13.1-27.5,16.5-36.3c4.1-10.2,2.8-16.8-15.6-27.1l4.1-8.4l56.4,27.5L564.6,1226.7z"/>
			<path class="st2" d="M616,1385.6c-22.8,15.7-43.5,13-53.5,9.2c-31.7-12.4-40.6-42.8-29.6-71c6.4-16.6,20.7-29.8,34.3-35.7
				c14.8-6.5,30.4-7.2,43.4-2.2c23.2,9,31.8,34.5,24.1,53.8c-1.6,4-3.4,7.9-6.5,7.6c-5-0.5-39-11.9-62.3-19.9
				c-8.8,25.5,0.2,43.7,17.2,50.3c9.2,3.6,19.7,3.9,31.1-0.2L616,1385.6z M602.1,1293.8c-9.5-3.7-21.8,4.3-30.5,22.4
				c9.8,3.6,18.9,6.8,28.9,10.4c3.4,1,5,1.1,6.6-2.9C611.9,1312,611.3,1297.4,602.1,1293.8z"/>
			<path class="st2" d="M630.1,1416.6l2.7-8.2c13.6,2.5,15.4,2.1,20.9-15.1l15.3-47.1c5.2-16.2,4.4-17.6-6.5-22.7l2.6-8
				c15.8,3.2,32,5.1,46.6,5.5c-3.3,10.2-6.5,20.1-9.7,30l-17.1,52.4c-5.4,16.4-4.9,18.4,8.5,24.7l-2.6,8.2L630.1,1416.6z
				 M699.1,1300.6c-9.2-3-14.9-13.4-11.8-22.8c3.2-9.9,13.8-14.5,23.2-11.4c9.7,3.1,15,12.9,11.8,22.8
				C719.3,1298.6,709,1303.8,699.1,1300.6z"/>
			<path class="st2" d="M757.1,1413.7c-3.1,2.1-5.9,4.8-6.6,7.2c-1,3.9,2.3,10.3,11.7,12.7c7.9,2.1,19.7,5.1,27.8,7.2
				c15,3.9,35.3,15.7,29.1,39.8c-7.2,27.8-46.9,41.2-79.6,32.7c-32.2-8.3-42.7-27.8-39.2-41.4c1.5-5.9,4.8-9.2,10.9-11.6
				c7.8-3,15.3-5.5,21.6-7.5c-8.9-6.2-12.8-12.5-14.9-18.5c-1.9-4.7-1.8-11.2-0.4-14.5c12.8-1.9,25.1-6.7,31.2-11.1L757.1,1413.7z
				 M760.7,1460.9c-12.5-3.2-19.1-3.4-23.6-1.1c-5.1,2.4-9,6.6-10.4,11.7c-3.4,13,6.3,26.3,27.5,31.8c18.9,4.9,33-0.9,36.5-14.2
				c2.3-9.1-2.1-16.5-9.1-20.5C775.3,1465.2,769.7,1463.2,760.7,1460.9z M768.2,1419.3c-28.1-7.2-42.4-26.9-36.7-49.1
				c6.9-26.5,35.7-32.5,57.9-26.8c10.3,2.6,18.2,6.8,26.2,13.6c10.3,2.6,28.2,5.5,34.8,5.3l0.7,2.3c-2.6,4.1-7.9,11.4-13,12.9
				c-4.2-1.1-10.8-3.8-14.2-5c2.5,5.4,3.1,12.3,0.7,21.7C818.2,1418.8,792.3,1425.5,768.2,1419.3z M785.7,1352.4
				c-7.6-1.9-17.6,5.2-22.2,23.1c-4.3,16.7-2.2,32,9.4,34.9c9.6,2.5,17.6-6.2,22.2-24C799,1371.1,797.6,1355.5,785.7,1352.4z"/>
			<path class="st2" d="M912.8,1487.2l1.4-8.5c11.4,0,12.4-1.6,14.5-15.2l7-44.2c3.1-19.3-3.9-27.1-13.7-28.7
				c-6-1-12.8-0.2-19.5,4.4l-10,62.7c-2.2,13.6-1.2,15.5,10.1,19.1l-1.4,8.5l-59.7-9.5l1.4-8.5c12.5,0.4,14.9,0.1,17.5-15.7
				l18.5-116.2c1.8-11.6,0.8-14.5-12.9-19l1.3-8.1c18.5,1.4,36.7,0.7,49.3-0.9c-1.5,9.3-3.1,19.3-4.5,28.6l-7.8,49.2
				c10.2-7.1,23.7-13,36.5-10.9c21.8,3.5,32.6,19.8,28.2,47.5l-7.3,45.9c-2.5,15.8-0.8,16.3,10.9,20.3l-1.4,8.5L912.8,1487.2z"/>
			<path class="st2" d="M1054.4,1390.7c7.5-2.9,13.2-4.2,18.3-3.9c31,1.5,50.3,27.6,48.9,56.1c-1.7,36.1-32.9,63.8-69.9,62
				c-14.7-0.7-27.5-3.9-44.8-11.4c0.5-6.1,0.9-13.2,1.2-19.5l5.7-117.5c0.7-14.5-0.7-16.6-14.9-18.3l0.4-8.7
				c13.2-0.6,34.8-3.1,48.9-6.3c-0.4,8.7-0.9,18-1.3,27.1l-2.2,44.2L1054.4,1390.7z M1040.9,1473.2c-0.2,3.6,0.4,6.7,1.1,8.7
				c1.4,3.9,8.1,12.1,17.5,12.5c13.5,0.6,24.1-13.8,25.6-45.1c1.6-32.5-13.8-46-29-46.7c-5.4-0.3-7.9,0.4-11.8,1.2L1040.9,1473.2z"
				/>
			<path class="st2" d="M1204,1384.3c35.7-2.8,60.4,22.3,62.8,52.7c3.2,40.8-24.6,63.6-54.5,66c-38.3,3-62.3-24.2-64.6-53.9
				C1144.6,1410.4,1174.9,1386.6,1204,1384.3z M1201.7,1394.7c-10.9,0.9-20.7,13.1-18.2,44.2c2.4,31.4,14.7,54.7,30.7,53.4
				c9.6-0.8,19.5-8.2,16.6-45.1C1228.1,1412,1217.5,1393.5,1201.7,1394.7z"/>
			<path class="st2" d="M1366.8,1477l-65.7,13.4l-1.7-8.5c12.9-4.2,13.9-5.7,10.9-20.6l-11.1-54.6c-2.5-12.4-3.8-13.5-16-13.6
				l-1.6-7.7c15.1-4.9,28.4-10.7,42.9-18.6c1.7,8.2,3.8,18.9,5.5,26.9c7.7-19.5,14.8-30.5,25-32.5c9.2-1.9,17.5,2.9,19.2,11.6
				c2.5,12.2-4.8,20.9-8.4,23.7c-3.2,2.2-5.9,1.5-7.9,0.3c-4.9-2.6-9-5.9-13.2-5.1c-3.7,0.8-9.3,5.2-11.8,15.6l9.6,47.3
				c3,14.9,4.9,15.4,22.8,13.8L1366.8,1477z"/>
			<path class="st2" d="M1411.4,1466l-2.5-8.3c13.2-6.4,13.3-7.8,8.5-23.1l-34.1-110.5c-3.9-12.7-5.8-13.6-19.2-12.4l-2.4-7.8
				c16.2-6.9,32.3-15,42.9-22.3c3.4,10.9,6.8,21.8,10.2,33l34,110.2c4.9,16,5.9,16.8,20.3,14.2l2.5,8.3L1411.4,1466z"/>
			<path class="st2" d="M1562.4,1297c-10.5,6.5-11.8,9.9-12.1,25c-0.5,14.7,0.6,35,1.2,73.3c0.6,44.7,3,62,4.4,77.2
				c0.6,5.8-1.5,8.7-5.4,10.4c-9.1,3.9-21.4,1.3-24.9-6.9c-1.6-3.7-1-6.2,2.5-11.4c6.8-9.1,11.2-16.3,12.2-25.3
				c0.6-5,0.4-12.4,0.1-15.6c-0.5-3.7-1.9-5.6-4.8-8.4c-26.8-28.2-55.6-53.6-64.1-61.5s-12.5-9.5-24.4-6.3l-3.5-7.9l58.2-25.5
				l3.5,7.9c-9.3,6-10.2,8.3-4.5,14.4l39.6,41.2c-0.5-15-1.5-40.1-3-55c-0.9-8.5-5.3-10.2-17.7-6.9l-3.5-7.9l42.6-18.7L1562.4,1297z
				"/>
		</g>
	</g>
	<polyline class="st1" points="609.4,714.9 590.3,509.2 636.6,435.7 655.7,590.3 	"/>
</g>
</svg>
